<mxfile host="app.diagrams.net" agent="Mozilla/5.0 (Windows NT 10.0; Win64; x64) AppleWebKit/537.36 (KHTML, like Gecko) Chrome/131.0.0.0 Safari/537.36" version="24.8.6">
  <diagram name="PÃ¡gina-1" id="3N2PMWoqHrxlGT9v2ru2">
    <mxGraphModel dx="1509" dy="821" grid="1" gridSize="10" guides="1" tooltips="1" connect="1" arrows="1" fold="1" page="1" pageScale="1" pageWidth="1654" pageHeight="1169" math="0" shadow="0">
      <root>
        <mxCell id="0" />
        <mxCell id="1" parent="0" />
        <mxCell id="OFQfx801gnrAqrKkaZJe-4" style="edgeStyle=orthogonalEdgeStyle;rounded=0;orthogonalLoop=1;jettySize=auto;html=1;" edge="1" parent="1" source="OFQfx801gnrAqrKkaZJe-13" target="OFQfx801gnrAqrKkaZJe-3">
          <mxGeometry relative="1" as="geometry">
            <Array as="points">
              <mxPoint x="750" y="400" />
            </Array>
          </mxGeometry>
        </mxCell>
        <mxCell id="OFQfx801gnrAqrKkaZJe-2" value="Entrou" style="rounded=1;whiteSpace=wrap;html=1;fillColor=#f5f5f5;gradientColor=#b3b3b3;strokeColor=#666666;" vertex="1" parent="1">
          <mxGeometry x="440" y="480" width="120" height="60" as="geometry" />
        </mxCell>
        <mxCell id="OFQfx801gnrAqrKkaZJe-10" style="edgeStyle=orthogonalEdgeStyle;rounded=0;orthogonalLoop=1;jettySize=auto;html=1;" edge="1" parent="1" source="OFQfx801gnrAqrKkaZJe-3" target="OFQfx801gnrAqrKkaZJe-8">
          <mxGeometry relative="1" as="geometry" />
        </mxCell>
        <mxCell id="OFQfx801gnrAqrKkaZJe-17" style="edgeStyle=orthogonalEdgeStyle;rounded=0;orthogonalLoop=1;jettySize=auto;html=1;entryX=0;entryY=0.5;entryDx=0;entryDy=0;" edge="1" parent="1" source="OFQfx801gnrAqrKkaZJe-3" target="OFQfx801gnrAqrKkaZJe-16">
          <mxGeometry relative="1" as="geometry">
            <Array as="points">
              <mxPoint x="940" y="230" />
            </Array>
          </mxGeometry>
        </mxCell>
        <mxCell id="OFQfx801gnrAqrKkaZJe-3" value="/[tenant]/market" style="rounded=1;whiteSpace=wrap;html=1;fillColor=#f5f5f5;gradientColor=#b3b3b3;strokeColor=#666666;" vertex="1" parent="1">
          <mxGeometry x="880" y="370" width="120" height="60" as="geometry" />
        </mxCell>
        <mxCell id="OFQfx801gnrAqrKkaZJe-7" style="edgeStyle=orthogonalEdgeStyle;rounded=0;orthogonalLoop=1;jettySize=auto;html=1;" edge="1" parent="1" source="OFQfx801gnrAqrKkaZJe-8" target="OFQfx801gnrAqrKkaZJe-9">
          <mxGeometry relative="1" as="geometry" />
        </mxCell>
        <mxCell id="OFQfx801gnrAqrKkaZJe-8" value="/cart" style="rounded=1;whiteSpace=wrap;html=1;fillColor=#f5f5f5;gradientColor=#b3b3b3;strokeColor=#666666;" vertex="1" parent="1">
          <mxGeometry x="1090" y="370" width="120" height="60" as="geometry" />
        </mxCell>
        <mxCell id="OFQfx801gnrAqrKkaZJe-15" style="edgeStyle=orthogonalEdgeStyle;rounded=0;orthogonalLoop=1;jettySize=auto;html=1;entryX=1;entryY=0.5;entryDx=0;entryDy=0;" edge="1" parent="1" source="OFQfx801gnrAqrKkaZJe-9" target="OFQfx801gnrAqrKkaZJe-11">
          <mxGeometry relative="1" as="geometry">
            <Array as="points">
              <mxPoint x="1360" y="510" />
            </Array>
          </mxGeometry>
        </mxCell>
        <mxCell id="OFQfx801gnrAqrKkaZJe-9" value="/checkout" style="rounded=1;whiteSpace=wrap;html=1;fillColor=#f5f5f5;gradientColor=#b3b3b3;strokeColor=#666666;" vertex="1" parent="1">
          <mxGeometry x="1300" y="370" width="120" height="60" as="geometry" />
        </mxCell>
        <mxCell id="OFQfx801gnrAqrKkaZJe-11" value="/cart" style="rounded=1;whiteSpace=wrap;html=1;fillColor=#f5f5f5;gradientColor=#b3b3b3;strokeColor=#666666;" vertex="1" parent="1">
          <mxGeometry x="880" y="480" width="120" height="60" as="geometry" />
        </mxCell>
        <mxCell id="OFQfx801gnrAqrKkaZJe-12" value="/perfil" style="rounded=1;whiteSpace=wrap;html=1;fillColor=#f5f5f5;gradientColor=#b3b3b3;strokeColor=#666666;" vertex="1" parent="1">
          <mxGeometry x="880" y="585" width="120" height="60" as="geometry" />
        </mxCell>
        <mxCell id="OFQfx801gnrAqrKkaZJe-14" value="" style="edgeStyle=orthogonalEdgeStyle;rounded=0;orthogonalLoop=1;jettySize=auto;html=1;" edge="1" parent="1" source="OFQfx801gnrAqrKkaZJe-2" target="OFQfx801gnrAqrKkaZJe-13">
          <mxGeometry relative="1" as="geometry">
            <mxPoint x="560" y="510" as="sourcePoint" />
            <mxPoint x="940" y="430" as="targetPoint" />
          </mxGeometry>
        </mxCell>
        <mxCell id="OFQfx801gnrAqrKkaZJe-35" style="edgeStyle=orthogonalEdgeStyle;rounded=0;orthogonalLoop=1;jettySize=auto;html=1;" edge="1" parent="1" source="OFQfx801gnrAqrKkaZJe-13" target="OFQfx801gnrAqrKkaZJe-11">
          <mxGeometry relative="1" as="geometry" />
        </mxCell>
        <mxCell id="OFQfx801gnrAqrKkaZJe-37" style="edgeStyle=orthogonalEdgeStyle;rounded=0;orthogonalLoop=1;jettySize=auto;html=1;entryX=0;entryY=0.5;entryDx=0;entryDy=0;" edge="1" parent="1" source="OFQfx801gnrAqrKkaZJe-13" target="OFQfx801gnrAqrKkaZJe-12">
          <mxGeometry relative="1" as="geometry">
            <Array as="points">
              <mxPoint x="750" y="615" />
            </Array>
          </mxGeometry>
        </mxCell>
        <mxCell id="OFQfx801gnrAqrKkaZJe-13" value="/[tenant]" style="rhombus;whiteSpace=wrap;html=1;" vertex="1" parent="1">
          <mxGeometry x="710" y="470" width="80" height="80" as="geometry" />
        </mxCell>
        <mxCell id="OFQfx801gnrAqrKkaZJe-18" style="edgeStyle=orthogonalEdgeStyle;rounded=0;orthogonalLoop=1;jettySize=auto;html=1;entryX=0.5;entryY=0;entryDx=0;entryDy=0;" edge="1" parent="1" source="OFQfx801gnrAqrKkaZJe-16" target="OFQfx801gnrAqrKkaZJe-8">
          <mxGeometry relative="1" as="geometry" />
        </mxCell>
        <mxCell id="OFQfx801gnrAqrKkaZJe-16" value="/[tenant]/product=id" style="rounded=1;whiteSpace=wrap;html=1;fillColor=#f5f5f5;gradientColor=#b3b3b3;strokeColor=#666666;" vertex="1" parent="1">
          <mxGeometry x="1090" y="200" width="120" height="60" as="geometry" />
        </mxCell>
      </root>
    </mxGraphModel>
  </diagram>
</mxfile>
